<svg width="64" height="64" viewBox="0 0 64 64" fill="none" xmlns="http://www.w3.org/2000/svg">
<path d="M50.6666 8H5.66663C4.00977 8 2.66663 9.34315 2.66663 11V42.6667H42.6666V18.6667C42.6666 17.9303 43.2636 17.3333 44 17.3333H53.3333L50.6666 8Z" stroke="#ADADA7" stroke-width="4" stroke-linecap="round" stroke-linejoin="round"/>
<path d="M42.6666 24H53.3333L61.3333 32V42.6667H42.6666L42.6666 24Z" stroke="#ADADA7" stroke-width="4" stroke-linecap="round" stroke-linejoin="round"/>
<path d="M14.6667 56C18.3486 56 21.3333 53.0152 21.3333 49.3333C21.3333 45.6514 18.3486 42.6666 14.6667 42.6666C10.9848 42.6666 8 45.6514 8 49.3333C8 53.0152 10.9848 56 14.6667 56Z" stroke="#ADADA7" stroke-width="4" stroke-linecap="round" stroke-linejoin="round"/>
<path d="M49.3333 56C53.0152 56 56 53.0152 56 49.3333C56 45.6514 53.0152 42.6666 49.3333 42.6666C45.6514 42.6666 42.6666 45.6514 42.6666 49.3333C42.6666 53.0152 45.6514 56 49.3333 56Z" stroke="#ADADA7" stroke-width="4" stroke-linecap="round" stroke-linejoin="round"/>
<path d="M18.6666 25.6L18.6666 17.0667C18.6666 16.4776 18.155 16 17.5238 16L11.8095 16C11.1783 16 10.6666 16.4776 10.6666 17.0667L10.6666 25.6C10.6666 26.1891 11.1783 26.6667 11.8095 26.6667L17.5238 26.6667C18.155 26.6667 18.6666 26.1891 18.6666 25.6Z" stroke="#ADADA7" stroke-width="4" stroke-linecap="round" stroke-linejoin="round"/>
</svg>
