<svg width="64" height="64" viewBox="0 0 64 64" fill="none" xmlns="http://www.w3.org/2000/svg">
<path d="M16.6422 58.6667C15.7108 58.6667 14.9265 58.3521 14.2893 57.723C13.652 57.0939 13.3334 56.3196 13.3334 55.4002V11.3391C13.3334 10.4196 13.652 9.64534 14.2893 9.01624C14.9265 8.33875 15.7108 8 16.6422 8H33.9951C39.3873 8 43.4804 9.20981 46.2745 11.6294C49.0687 14.049 50.4657 17.2187 50.4657 21.1385C50.4657 24.1388 49.7304 26.5584 48.2598 28.3973C46.7893 30.1878 45.1226 31.4944 43.2598 32.3171C45.0245 32.8494 46.6667 33.6479 48.1863 34.7125C49.7549 35.7771 51.0049 37.1079 51.9363 38.7049C52.8677 40.3018 53.3334 42.2133 53.3334 44.4394C53.3334 47.2461 52.6961 49.7383 51.4216 51.916C50.1961 54.0452 48.1863 55.7147 45.3922 56.9245C42.6471 58.086 38.9951 58.6667 34.4363 58.6667H16.6422ZM20.0246 29.9217H32.2304C35.3187 29.9217 37.7206 29.5587 39.4363 28.8329C41.152 28.107 42.353 27.1149 43.0393 25.8567C43.7255 24.5985 44.0687 23.1952 44.0687 21.6466C44.0687 19.3722 43.1373 17.5575 41.2745 16.2025C39.4118 14.8475 36.8138 14.17 33.4804 14.17H20.0246V29.9217ZM20.0246 52.4967H33.7746C37.1569 52.4967 39.7795 52.1579 41.6422 51.4804C43.554 50.7545 44.902 49.7625 45.6863 48.5043C46.4706 47.2461 46.8628 45.7943 46.8628 44.149C46.8628 41.2939 45.7353 39.213 43.4804 37.9064C41.2746 36.5514 38.0638 35.8739 33.8481 35.8739H20.0246V52.4967Z" fill="#ADADA7"/>
</svg>
