<svg width="64" height="64" viewBox="0 0 64 64" fill="none" xmlns="http://www.w3.org/2000/svg">
<path d="M5.33337 37.3334L7.99854 50.6667M7.99854 50.6667L5.33337 58.6667M7.99854 50.6667H15.0787C16.9632 50.6667 17.3939 51.0438 17.717 52.9024L18.6861 58.6667M58.6667 37.3334L56.0015 50.6667M56.0015 50.6667L58.6667 58.6667M56.0015 50.6667H48.9213C47.0369 50.6667 46.6061 51.0438 46.2831 52.9024L45.3139 58.6667M31.9866 26.6398V58.6667M29.3214 58.6667H34.6517M23.9911 40H39.9821M12.2535 19.7441C17.7723 17.1583 23.318 13.064 27.4369 8.96974C29.8598 6.5455 31.0713 5.33337 31.9866 5.33337C32.9019 5.33337 34.1133 6.5455 36.5362 8.96974C40.6282 13.064 46.1739 17.1583 51.6927 19.7441C53.5772 20.633 54.7078 21.7105 55.6231 23.8115C56.3231 25.4276 56 26.6398 54.1156 26.6398H9.85758C7.97312 26.6398 7.65007 25.4007 8.35001 23.8115C9.26532 21.7105 10.396 20.6061 12.2805 19.7441H12.2535Z" stroke="#ADADA7" stroke-width="4" stroke-linecap="round" stroke-linejoin="round"/>
</svg>
