<svg width="24" height="24" viewBox="0 0 24 24" fill="none" xmlns="http://www.w3.org/2000/svg">
<path d="M5.6161 19C4.79013 19 4.09072 18.9155 3.51787 18.7465C2.95834 18.5645 2.47875 18.3695 2.07909 18.1616C1.79932 18.0186 1.65944 17.7846 1.65944 17.4596C1.65944 17.2516 1.73271 17.0696 1.87926 16.9136C2.0258 16.7447 2.22563 16.6602 2.47875 16.6602C2.61197 16.6602 2.72521 16.6797 2.81846 16.7187C3.16484 16.8747 3.55784 17.0111 3.99747 17.1281C4.4371 17.2321 4.93001 17.2841 5.47622 17.2841C6.34215 17.2841 7.04156 17.1151 7.57444 16.7772C8.10733 16.4262 8.52031 15.9842 8.8134 15.4513C9.1198 14.9183 9.33296 14.3723 9.45286 13.8134C9.57275 13.2414 9.64603 12.7344 9.67267 12.2925C9.33962 12.6955 8.8467 13.0854 8.19392 13.4624C7.55446 13.8264 6.68186 14.0084 5.57613 14.0084C4.67023 14.0084 3.87091 13.8199 3.17816 13.4429C2.49873 13.0659 1.96585 12.533 1.57951 11.844C1.19317 11.1551 1 10.3491 1 9.42618C1 8.60724 1.19983 7.86629 1.59949 7.20334C1.99916 6.52739 2.56534 5.99443 3.29806 5.60446C4.04409 5.20149 4.92335 5 5.93583 5C6.92166 5 7.74097 5.15599 8.39375 5.46797C9.05985 5.76695 9.59274 6.17642 9.9924 6.69638C10.3921 7.20334 10.6918 7.7623 10.8916 8.37326C11.1048 8.98422 11.2447 9.60817 11.3113 10.2451C11.3779 10.8691 11.4112 11.4475 11.4112 11.9805C11.4112 12.7344 11.3113 13.5209 11.1115 14.3398C10.9249 15.1588 10.6052 15.9257 10.1523 16.6407C9.71264 17.3426 9.1198 17.9146 8.37377 18.3565C7.64105 18.7855 6.72183 19 5.6161 19ZM5.79595 12.39C6.58195 12.39 7.22807 12.2665 7.73431 12.0195C8.24055 11.7595 8.64021 11.4605 8.9333 11.1226C9.22638 10.7846 9.43953 10.4921 9.57276 10.2451C9.4795 9.60817 9.30631 9.02321 9.05319 8.49025C8.80007 7.94429 8.4204 7.50232 7.91416 7.16435C7.42124 6.82637 6.75514 6.65738 5.91585 6.65738C5.27639 6.65738 4.72352 6.78737 4.25725 7.04735C3.8043 7.30734 3.45126 7.65181 3.19814 8.08078C2.94502 8.49675 2.81846 8.95822 2.81846 9.46518C2.81846 10.3231 3.06492 11.0251 3.55784 11.571C4.05076 12.117 4.79679 12.39 5.79595 12.39Z" fill="#E0452B"/>
<path d="M17.5246 19C16.5921 19 15.7728 18.8895 15.0667 18.6685C14.374 18.4475 13.7745 18.1811 13.2682 17.8691C13.175 17.8041 13.0817 17.7261 12.9885 17.6351C12.9085 17.5311 12.8686 17.3751 12.8686 17.1671C12.8686 16.9461 12.9418 16.7512 13.0884 16.5822C13.2349 16.4132 13.4281 16.3287 13.6679 16.3287C13.8144 16.3287 13.9543 16.3612 14.0875 16.4262C14.5138 16.6472 14.9934 16.8422 15.5263 17.0111C16.0725 17.1671 16.6587 17.2451 17.2848 17.2451C18.0708 17.2451 18.7569 17.1606 19.3431 16.9916C19.9293 16.8227 20.3822 16.5432 20.7019 16.1532C21.0217 15.7502 21.1815 15.1978 21.1815 14.4958C21.1815 13.6899 20.9018 13.0529 20.3422 12.585C19.796 12.117 19.0433 11.883 18.0842 11.883C17.4047 11.883 16.8052 11.974 16.2857 12.156C15.7661 12.338 15.3398 12.5265 15.0068 12.7214C14.9135 12.7734 14.8136 12.8254 14.707 12.8774C14.6004 12.9294 14.4672 12.9554 14.3073 12.9554C13.9343 12.9554 13.6213 12.8579 13.3681 12.663C13.115 12.455 12.9885 12.1755 12.9885 11.8245C12.9885 11.6685 13.0018 11.5125 13.0284 11.3565L13.9277 6.16992C13.9676 5.87094 14.0809 5.63695 14.2674 5.46797C14.4672 5.28598 14.707 5.19499 14.9868 5.19499H21.4014C21.6411 5.19499 21.841 5.27948 22.0008 5.44847C22.174 5.60446 22.2606 5.79944 22.2606 6.03343C22.2606 6.26741 22.174 6.4624 22.0008 6.61838C21.841 6.77437 21.6411 6.85237 21.4014 6.85237H15.6062L14.9668 10.9861C15.3798 10.7651 15.8594 10.5766 16.4056 10.4206C16.9651 10.2646 17.6112 10.1866 18.3439 10.1866C19.3564 10.1866 20.2024 10.3816 20.8818 10.7716C21.5745 11.1486 22.1008 11.6685 22.4605 12.3315C22.8202 12.9944 23 13.7484 23 14.5933C23 15.4253 22.8068 16.1727 22.4205 16.8357C22.0341 17.4986 21.4347 18.0251 20.622 18.415C19.8227 18.805 18.7902 19 17.5246 19Z" fill="#E0452B"/>
</svg>
