<svg width="24" height="24" viewBox="0 0 24 24" fill="none" xmlns="http://www.w3.org/2000/svg">
<path d="M20 18V10C20 8.11 20 7.17 19.41 6.59C18.82 6 17.88 6 16 6H4V18C4 19.89 4 20.83 4.59 21.41C5.18 21.99 6.12 22 8 22H16C17.89 22 18.83 22 19.41 21.41C19.99 20.82 20 19.88 20 18Z" stroke="#E0452B" stroke-width="2" stroke-linecap="round" stroke-linejoin="round"/>
<path d="M12 11C13.66 11 15 12.34 15 14M12 11C10.34 11 9 12.34 9 14M12 11V10M15 14H9M15 14H16M9 14H8M8 18H16M4 6L11.38 2.91C13.03 2.22 13.85 1.87 14.51 2.05C14.94 2.16 15.31 2.42 15.58 2.77C15.99 3.31 15.99 4.21 15.99 6.01" stroke="#E0452B" stroke-width="2" stroke-linecap="round" stroke-linejoin="round"/>
</svg>
