<svg width="49" height="37" viewBox="0 0 49 37" fill="none" xmlns="http://www.w3.org/2000/svg">
<path d="M19.1961 18.3381C19.1961 18.3381 15.8196 18.3381 11.9117 18.3381C7.44094 18.3381 3.34538 15.9473 1.31324 12.122C-0.718909 8.32655 -0.343744 3.7541 2.28241 0.287408C2.28241 0.287408 2.28241 0.257523 2.31368 0.227637C2.43873 0.0483258 2.68884 -0.04133 2.90769 0.0184406C3.12654 0.0782111 3.28286 0.257523 3.31412 0.496605C3.40791 1.9311 4.53341 2.91731 6.75314 2.91731H19.1961C19.1961 2.91731 22.5726 2.91731 26.4806 2.91731C30.9513 2.91731 35.0469 5.30814 37.079 9.13345C39.1112 12.9289 38.736 17.5312 36.1098 20.968C36.1098 20.968 36.1098 20.9979 36.0786 21.0278C35.9535 21.2071 35.7034 21.2968 35.4846 21.237C35.2657 21.1772 34.8905 21.0278 34.8593 20.7887C34.7655 19.3542 33.8588 18.3381 31.6391 18.3381H19.1961Z" fill="#E0452B"/>
<path d="M7.37855 17.4713C7.84751 17.6506 8.31646 17.8 8.81669 17.9495C8.87921 19.2943 9.56702 20.6093 11.6304 20.6093H24.0734C26.0743 20.6093 29.4195 20.6093 32.6397 20.6093C37.9545 20.6093 42.6441 23.9265 44.2073 28.7978C45.0201 31.368 46.0831 33.7887 47.8652 35.2829C47.9902 35.4025 48.0527 35.5818 47.9902 35.7312C47.9277 35.8806 47.7714 36.0002 47.5838 36.0002H24.1672C24.1672 36.0002 20.7595 36.0002 16.7577 36.0002C12.287 36.0002 8.19141 33.6094 6.15926 29.784C4.12712 25.9886 4.75239 20.9081 7.34729 17.4713" fill="#00A0BA"/>
</svg>
